<?xml version="1.0" encoding="UTF-8" standalone="no"?>
<svg xmlns:dc="http://purl.org/dc/elements/1.1/" xmlns:cc="http://creativecommons.org/ns#" xmlns:rdf="http://www.w3.org/1999/02/22-rdf-syntax-ns#" xmlns:svg="http://www.w3.org/2000/svg" xmlns="http://www.w3.org/2000/svg" xmlns:xlink="http://www.w3.org/1999/xlink" viewBox="0 0 240 240" id="svg30" version="1.1" height="240" width="240">
  <metadata id="metadata5458">image/svg+xml<rdf:RDF>
  <cc:Work rdf:about="">
    <dc:format>image/svg+xml</dc:format>
    <dc:type rdf:resource="http://purl.org/dc/dcmitype/StillImage" />
    <dc:title></dc:title>
  </cc:Work>
</rdf:RDF>
</metadata>
  <defs id="defs13">
    <filter id="filter5068">
      <feGaussianBlur id="feGaussianBlur5070" stdDeviation="0.164245" />
    </filter>
    <linearGradient xlink:href="#linearGradient5024" id="linearGradient5153" x1="-7.0000001e-006" y1="-0.18363801" x2="-7.0000001e-006" y2="1.554765" />
    <linearGradient id="linearGradient5032">
      <stop offset="0" id="stop5034" stop-color="#ce1212" />
      <stop offset="1" id="stop5036" stop-color="#ff1212" />
    </linearGradient>
    <linearGradient id="linearGradient5024">
      <stop offset="0" id="stop5026" stop-color="#ffffff" />
      <stop offset="1" id="stop5028" stop-opacity="0" stop-color="#ffffff" />
    </linearGradient>
    <linearGradient xlink:href="#linearGradient5032" id="linearGradient5503" x1="9.9999997e-006" y1="1.0000041" x2="9.9999997e-006" y2="9.0000003e-006" />
  </defs>
  <g id="g18">
    <title id="title15">background</title>
    <rect style="fill:none" x="-1" y="-1" width="582" height="402" id="canvas_background" />
  </g>
  <g id="g28">
    <title id="title20">Layer 1</title>
    <path style="fill:#7e0000" id="path3717" d="m 68.690063,1.43908 95.106997,5e-5 67.25078,67.250827 -7e-5,95.107013 -67.25083,67.25077 -95.106999,-6e-5 -67.250771,-67.25083 5e-5,-95.107 67.250844,-67.25077 z" />
    <path style="fill:#000000;fill-opacity:0.25657905;filter:url(#filter5068)" id="path5042" d="m 76.203201,8.952229 95.107009,3e-5 67.25076,67.250852 -6e-5,95.107009 -67.25081,67.25076 -95.107021,-6e-5 L 8.952324,171.31 8.952351,76.202997 76.203202,8.95223 Z" />
    <path style="fill:#e78a8a" id="path3741" d="m 71.470734,8.15211 89.545756,4e-5 63.31838,63.318439 -5e-5,89.545771 -63.31843,63.31837 -89.545763,-4e-5 L 8.15225,161.01625 8.15229,71.470498 71.470733,8.152111 Z" />
    <path style="fill:url(#linearGradient5503)" id="path3743" d="m 75.370979,17.568171 81.745251,1.9e-5 57.80259,57.802637 -3e-5,81.745243 -57.80263,57.80262 -81.745243,-4e-5 -57.802599,-57.80264 2.1e-5,-81.745237 57.802639,-57.802603 z" />
    <text style="font-weight:bold;font-size:136px;font-family:Helvetica, Arial, sans-serif;text-anchor:start;fill:#ffffff;fill-opacity:1;stroke:#000000;stroke-width:0" x="26.5" y="160.45" id="svg_1" font-size="136" xml:space="preserve" font-weight="bold">UL</text>
    <path style="fill:url(#linearGradient5153)" id="path5509" d="M 71.429604,8.1797 8.15479,71.454521 V 98.635856 C 94.544823,118.69755 129.92477,72.689041 224.39265,97.633163 V 71.454521 L 161.00044,8.1797 H 71.429603 Z" />
  </g>
</svg>
